<?xml version="1.0" standalone="no"?>
<!DOCTYPE svg PUBLIC "-//W3C//DTD SVG 20010904//EN"
 "http://www.w3.org/TR/2001/REC-SVG-20010904/DTD/svg10.dtd">
<svg version="1.0" xmlns="http://www.w3.org/2000/svg"
 width="550.000000pt" height="75.000000pt" viewBox="0 0 550.000000 75.000000"
 preserveAspectRatio="xMidYMid meet">

<g transform="translate(0.000000,75.000000) scale(0.100000,-0.100000)"
fill="#000000" stroke="none">
<path d="M312 663 c-24 -8 -61 -32 -83 -53 -40 -38 -40 -38 -25 -69 9 -16 16
-38 16 -48 0 -12 8 -6 25 19 32 47 98 86 158 94 26 4 44 11 41 15 -9 15 6 47
24 52 9 3 -12 5 -48 5 -36 0 -84 -6 -108 -15z"/>
<path d="M1621 544 c0 -11 3 -14 6 -6 3 7 2 16 -1 19 -3 4 -6 -2 -5 -13z"/>
<path d="M2221 544 c0 -11 3 -14 6 -6 3 7 2 16 -1 19 -3 4 -6 -2 -5 -13z"/>
<path d="M3202 503 c-2 -60 -3 -63 -27 -63 -16 0 -25 -6 -25 -15 0 -11 -11
-15 -40 -15 -27 0 -43 5 -46 15 -6 15 -83 22 -85 8 -6 -41 -5 -72 2 -67 5 3 9
12 9 20 0 17 36 19 43 2 4 -10 7 -10 14 -1 5 7 41 13 88 15 l80 3 -6 80 -5 80
-2 -62z"/>
<path d="M3054 534 c-18 -14 -18 -15 4 -4 12 6 22 13 22 15 0 8 -5 6 -26 -11z"/>
<path d="M2813 533 c15 -2 37 -2 50 0 12 2 0 4 -28 4 -27 0 -38 -2 -22 -4z"/>
<path d="M5021 524 c0 -11 3 -14 6 -6 3 7 2 16 -1 19 -3 4 -6 -2 -5 -13z"/>
<path d="M5102 515 c0 -16 2 -22 5 -12 2 9 2 23 0 30 -3 6 -5 -1 -5 -18z"/>
<path d="M329 512 c-48 -40 -17 -122 46 -122 53 0 85 52 60 99 -23 45 -67 54
-106 23z m61 -22 c0 -11 -7 -20 -15 -20 -8 0 -15 -7 -15 -15 0 -8 -7 -15 -15
-15 -8 0 -15 7 -15 15 0 8 4 15 9 15 5 0 11 9 14 20 3 11 12 20 21 20 9 0 16
-8 16 -20z m20 -45 c0 -8 -7 -15 -15 -15 -8 0 -15 7 -15 15 0 8 7 15 15 15 8
0 15 -7 15 -15z m-29 -28 c-1 -12 -15 -9 -19 4 -3 6 1 10 8 8 6 -3 11 -8 11
-12z"/>
<path d="M3978 523 c12 -2 32 -2 45 0 12 2 2 4 -23 4 -25 0 -35 -2 -22 -4z"/>
<path d="M4098 523 c7 -3 16 -2 19 1 4 3 -2 6 -13 5 -11 0 -14 -3 -6 -6z"/>
<path d="M4810 523 c0 -5 26 -7 57 -5 101 5 111 9 26 11 -46 0 -83 -2 -83 -6z"/>
<path d="M5228 523 c12 -2 30 -2 40 0 9 3 -1 5 -23 4 -22 0 -30 -2 -17 -4z"/>
<path d="M2021 504 c0 -11 3 -14 6 -6 3 7 2 16 -1 19 -3 4 -6 -2 -5 -13z"/>
<path d="M3521 504 c0 -11 3 -14 6 -6 3 7 2 16 -1 19 -3 4 -6 -2 -5 -13z"/>
<path d="M3640 513 c0 -5 28 -7 62 -5 113 5 125 9 31 10 -51 1 -93 -1 -93 -5z"/>
<path d="M1720 502 c0 -8 -20 -13 -52 -14 l-53 -2 49 -3 c46 -4 78 8 63 24 -4
3 -7 1 -7 -5z"/>
<path d="M1810 503 c0 -5 26 -7 57 -5 101 5 111 9 26 11 -46 0 -83 -2 -83 -6z"/>
<path d="M2320 502 c0 -8 -20 -13 -52 -14 l-53 -2 49 -3 c46 -4 78 8 63 24 -4
3 -7 1 -7 -5z"/>
<path d="M2722 490 c0 -14 2 -19 5 -12 2 6 2 18 0 25 -3 6 -5 1 -5 -13z"/>
<path d="M3310 503 c0 -5 26 -7 57 -5 101 5 111 9 26 11 -46 0 -83 -2 -83 -6z"/>
<path d="M4421 494 c0 -11 3 -14 6 -6 3 7 2 16 -1 19 -3 4 -6 -2 -5 -13z"/>
<path d="M5151 494 c0 -11 3 -14 6 -6 3 7 2 16 -1 19 -3 4 -6 -2 -5 -13z"/>
<path d="M1498 483 c12 -2 32 -2 45 0 12 2 2 4 -23 4 -25 0 -35 -2 -22 -4z"/>
<path d="M2098 483 c12 -2 32 -2 45 0 12 2 2 4 -23 4 -25 0 -35 -2 -22 -4z"/>
<path d="M2798 483 c7 -3 16 -2 19 1 4 3 -2 6 -13 5 -11 0 -14 -3 -6 -6z"/>
<path d="M2870 481 c0 -5 9 -7 20 -4 11 3 20 7 20 9 0 2 -9 4 -20 4 -11 0 -20
-4 -20 -9z"/>
<path d="M2396 463 c-6 -14 -5 -15 5 -6 7 7 10 15 7 18 -3 3 -9 -2 -12 -12z"/>
<path d="M2611 464 c0 -11 3 -14 6 -6 3 7 2 16 -1 19 -3 4 -6 -2 -5 -13z"/>
<path d="M1281 458 c-1 -11 -9 -18 -21 -18 -10 0 -24 -8 -29 -17 -10 -17 -10
-17 -11 0 0 11 -8 17 -25 17 -18 0 -25 -5 -25 -20 0 -17 7 -20 43 -21 37 0 40
-2 20 -11 -13 -6 -23 -15 -23 -20 0 -5 13 -2 29 6 29 16 57 66 48 88 -4 8 -6
7 -6 -4z"/>
<path d="M2442 454 c-7 -8 -8 -14 -3 -14 10 0 25 19 20 25 -2 1 -10 -3 -17
-11z"/>
<path d="M4510 450 c0 -5 -9 -10 -19 -10 -14 0 -18 -5 -14 -20 3 -11 11 -20
18 -20 8 0 16 -8 18 -17 3 -10 5 3 6 30 0 26 -1 47 -4 47 -3 0 -5 -4 -5 -10z"/>
<path d="M5100 450 c0 -5 -7 -10 -15 -10 -8 0 -15 -9 -15 -20 0 -11 6 -20 14
-20 8 0 17 -6 19 -12 3 -7 6 6 6 30 1 23 -1 42 -4 42 -3 0 -5 -4 -5 -10z"/>
<path d="M1854 441 c47 -6 48 -7 25 -18 -13 -7 -46 -14 -74 -16 -27 -2 11 -3
85 -4 74 0 118 2 97 4 -37 4 -37 5 -17 21 20 16 16 17 -72 18 -65 1 -78 -1
-44 -5z"/>
<path d="M3354 441 c47 -6 48 -7 25 -18 -13 -7 -46 -14 -74 -16 -27 -2 11 -3
85 -4 74 0 118 2 97 4 -37 4 -37 5 -17 21 20 16 16 17 -72 18 -65 1 -78 -1
-44 -5z"/>
<path d="M3913 443 c-25 -3 -33 -9 -33 -24 0 -14 7 -19 25 -19 33 0 33 -32 0
-65 -13 -14 -20 -25 -16 -25 20 0 45 45 51 90 4 28 6 49 6 48 -1 0 -16 -3 -33
-5z"/>
<path d="M4395 442 c-11 -3 -23 -9 -27 -16 -6 -8 -8 -7 -8 2 0 6 -11 12 -25
12 -18 0 -25 -5 -25 -20 0 -13 7 -20 19 -20 12 0 21 -8 24 -22 l4 -23 2 23 c1
18 5 22 20 17 14 -4 23 0 31 15 15 27 10 37 -15 32z"/>
<path d="M870 420 c0 -13 7 -20 19 -20 11 0 22 -8 24 -17 3 -10 5 -1 6 20 1
33 -2 37 -24 37 -18 0 -25 -5 -25 -20z"/>
<path d="M970 420 c0 -13 7 -20 19 -20 11 0 22 -6 24 -12 3 -7 6 2 6 20 1 28
-2 32 -24 32 -18 0 -25 -5 -25 -20z"/>
<path d="M1070 420 c0 -13 7 -20 19 -20 11 0 22 -8 24 -17 3 -10 5 -1 6 20 1
33 -2 37 -24 37 -18 0 -25 -5 -25 -20z"/>
<path d="M1310 420 c0 -17 7 -20 49 -20 39 0 51 -4 54 -17 3 -10 5 -1 6 20 1
33 -2 37 -24 37 -17 0 -25 -6 -25 -17 -1 -17 -1 -17 -14 0 -18 23 -46 22 -46
-3z"/>
<path d="M1546 424 c-9 -23 -8 -24 14 -24 31 0 13 -28 -38 -61 -48 -30 -50
-39 -4 -15 15 8 40 28 56 45 17 17 40 31 52 31 17 0 21 4 17 20 -4 16 -14 20
-48 20 -30 0 -45 -5 -49 -16z"/>
<path d="M2146 424 c-9 -23 -8 -24 14 -24 31 0 13 -28 -38 -61 -48 -30 -50
-39 -4 -15 15 8 40 28 56 45 17 17 40 31 52 31 17 0 21 4 17 20 -4 16 -14 20
-48 20 -30 0 -45 -5 -49 -16z"/>
<path d="M2365 432 c-14 -14 -3 -32 20 -32 14 0 25 -4 25 -9 0 -5 15 -4 35 2
42 12 51 6 35 -23 -6 -12 -9 -24 -6 -27 3 -3 13 11 22 31 14 28 15 39 6 48
-12 12 -126 20 -137 10z"/>
<path d="M2524 424 c3 -9 6 -18 6 -20 0 -2 14 -4 31 -4 17 0 28 -4 24 -10 -3
-5 -1 -10 4 -10 6 0 11 3 11 8 0 4 3 17 6 30 6 21 3 22 -41 22 -39 0 -46 -3
-41 -16z"/>
<path d="M2660 432 c0 -14 23 -32 41 -32 12 0 19 -10 22 -27 3 -20 5 -15 7 17
1 25 4 37 7 28 2 -10 13 -18 24 -18 16 0 19 -4 13 -22 -3 -13 -13 -31 -22 -40
-11 -13 -11 -18 -3 -18 7 0 20 18 28 40 l16 40 61 1 c34 1 53 3 44 6 -27 7
-21 21 10 26 15 2 -35 5 -110 6 -76 0 -138 -3 -138 -7z m170 -12 c0 -5 -9 -10
-20 -10 -11 0 -20 5 -20 10 0 6 9 10 20 10 11 0 20 -4 20 -10z"/>
<path d="M3760 420 c0 -15 7 -20 25 -20 22 0 25 -4 25 -35 0 -22 -6 -38 -17
-44 -10 -6 -13 -11 -8 -11 23 0 35 26 35 77 0 52 0 53 -30 53 -23 0 -30 -4
-30 -20z"/>
<path d="M4180 421 c0 -23 17 -31 54 -24 18 4 31 1 37 -8 6 -10 9 -4 9 19 0
27 -4 32 -24 32 -15 0 -26 -7 -29 -17 -4 -17 -5 -17 -6 0 -1 24 -41 23 -41 -2z"/>
<path d="M4530 420 c0 -11 7 -20 15 -20 18 0 20 -41 3 -59 -11 -11 -10 -13 2
-9 10 3 16 21 18 56 3 47 1 52 -17 52 -14 0 -21 -6 -21 -20z"/>
<path d="M4590 420 c0 -13 7 -20 20 -20 25 0 25 -16 -1 -60 l-21 -35 22 21
c12 12 24 39 27 63 5 38 23 59 23 26 0 -8 9 -15 19 -15 15 0 21 -8 24 -32 3
-26 4 -23 5 14 1 26 7 48 15 51 6 3 -21 6 -60 6 -67 1 -73 -1 -73 -19z"/>
<path d="M4780 431 c0 -10 54 -31 81 -31 29 0 4 -43 -39 -68 -21 -12 -32 -22
-27 -22 24 0 78 43 88 71 9 23 16 29 32 25 11 -3 28 -6 37 -6 9 0 19 -10 21
-22 3 -13 4 -5 4 17 l-2 40 -97 3 c-57 2 -98 -1 -98 -7z"/>
<path d="M5120 420 c0 -11 7 -20 15 -20 18 0 20 -31 3 -50 -11 -12 -10 -12 5
-1 9 7 17 19 17 25 0 20 20 34 41 29 27 -7 24 -40 -7 -68 -15 -14 -22 -25 -17
-25 15 0 42 33 53 67 9 23 16 30 31 26 10 -3 19 -10 19 -15 0 -5 11 -1 24 9
43 32 22 43 -85 43 -92 0 -99 -1 -99 -20z"/>
<path d="M470 397 c0 -26 5 -37 19 -42 29 -9 81 -72 81 -99 0 -60 -75 -102
-166 -93 l-53 5 19 -31 c10 -17 17 -34 15 -38 -9 -13 57 -19 103 -8 64 14 119
47 144 87 53 86 -18 219 -134 247 -27 7 -28 5 -28 -28z"/>
<path d="M3603 403 c26 -2 68 -2 95 0 26 2 4 3 -48 3 -52 0 -74 -1 -47 -3z"/>
<path d="M1348 383 c7 -3 16 -2 19 1 4 3 -2 6 -13 5 -11 0 -14 -3 -6 -6z"/>
<path d="M1798 383 c12 -2 32 -2 45 0 12 2 2 4 -23 4 -25 0 -35 -2 -22 -4z"/>
<path d="M1927 383 c-12 -11 -7 -24 6 -16 6 4 32 10 57 14 l45 6 -51 2 c-28 0
-54 -2 -57 -6z"/>
<path d="M2820 374 c0 -12 4 -14 13 -7 6 6 19 13 27 16 9 3 3 6 -12 6 -20 1
-28 -4 -28 -15z"/>
<path d="M3213 383 c-7 -3 -13 -20 -13 -38 0 -23 -5 -35 -17 -39 -14 -4 -14
-4 2 -3 14 2 21 11 23 32 2 16 9 33 15 37 14 9 6 17 -10 11z"/>
<path d="M3298 383 c12 -2 32 -2 45 0 12 2 2 4 -23 4 -25 0 -35 -2 -22 -4z"/>
<path d="M3427 383 c-12 -11 -7 -24 6 -16 6 4 32 10 57 14 l45 6 -51 2 c-28 0
-54 -2 -57 -6z"/>
<path d="M3655 380 l-90 -6 87 -2 c49 -1 89 2 93 8 3 6 5 9 3 8 -2 -1 -43 -5
-93 -8z"/>
<path d="M3103 373 c9 -2 25 -2 35 0 9 3 1 5 -18 5 -19 0 -27 -2 -17 -5z"/>
<path d="M347 364 c-4 -4 -7 -40 -7 -80 0 -72 0 -72 31 -83 18 -6 36 -11 41
-11 5 0 7 39 6 88 l-3 87 -30 3 c-17 2 -34 0 -38 -4z"/>
<path d="M1101 337 c-13 -21 -12 -21 5 -5 10 10 16 20 13 22 -3 3 -11 -5 -18
-17z"/>
<path d="M1411 348 c-1 -22 -24 -27 -136 -31 l-90 -3 101 -2 c104 -2 143 9
131 39 -4 10 -6 10 -6 -3z"/>
<path d="M1911 327 c-13 -21 -12 -21 5 -5 10 10 16 20 13 22 -3 3 -11 -5 -18
-17z"/>
<path d="M2530 329 c-22 -18 -22 -19 -3 -10 12 6 25 16 28 21 9 15 3 12 -25
-11z"/>
<path d="M3411 327 c-13 -21 -12 -21 5 -5 10 10 16 20 13 22 -3 3 -11 -5 -18
-17z"/>
<path d="M5102 330 c0 -14 2 -19 5 -12 2 6 2 18 0 25 -3 6 -5 1 -5 -13z"/>
<path d="M2902 324 c-7 -8 -8 -14 -3 -14 10 0 25 19 20 25 -2 1 -10 -3 -17
-11z"/>
<path d="M2405 320 c-16 -7 -17 -9 -3 -9 9 -1 20 4 23 9 7 11 7 11 -20 0z"/>
<path d="M4985 320 l-40 -7 37 -2 c20 0 40 4 43 9 3 6 5 9 3 9 -2 -1 -21 -5
-43 -9z"/>
<path d="M5315 320 c-3 -5 -1 -10 4 -10 6 0 11 5 11 10 0 6 -2 10 -4 10 -3 0
-8 -4 -11 -10z"/>
<path d="M4912 208 c-1 -14 -8 -29 -14 -31 -10 -4 -10 -8 1 -15 8 -6 10 -15 6
-23 -6 -11 -5 -11 4 -3 7 7 11 29 8 55 -2 24 -4 32 -5 17z"/>
<path d="M3381 203 c0 -12 -7 -24 -13 -26 -10 -4 -9 -8 2 -16 12 -8 16 -6 18
9 2 11 1 28 -1 38 -4 13 -5 12 -6 -5z"/>
<path d="M972 184 c-11 -12 -11 -17 1 -29 13 -12 15 -10 19 15 5 33 0 37 -20
14z"/>
<path d="M1531 184 c-7 -9 -10 -19 -5 -24 5 -5 14 2 21 16 13 27 5 31 -16 8z"/>
<path d="M3002 184 c-7 -8 -10 -19 -6 -26 5 -7 10 -3 16 12 10 28 7 33 -10 14z"/>
<path d="M3242 185 c-16 -8 -20 -15 -12 -20 6 -4 12 -5 13 -4 2 2 9 12 16 22
15 20 14 20 -17 2z"/>
<path d="M4188 186 c-19 -14 -23 -26 -10 -26 4 0 13 9 20 20 14 23 13 24 -10
6z"/>
<path d="M4592 185 c-16 -8 -20 -15 -12 -20 6 -4 12 -5 13 -4 2 2 9 12 16 22
15 20 14 20 -17 2z"/>
<path d="M4762 184 c-11 -12 -11 -17 1 -29 13 -12 15 -10 19 15 5 33 0 37 -20
14z"/>
<path d="M4858 186 c-20 -15 -23 -26 -8 -26 5 0 14 9 20 20 12 23 11 24 -12 6z"/>
<path d="M1021 181 c-12 -8 -12 -12 2 -26 16 -15 17 -15 17 9 0 29 0 29 -19
17z"/>
<path d="M1273 179 c-15 -6 -21 -13 -16 -24 5 -15 8 -14 26 4 25 24 21 32 -10
20z"/>
<path d="M1701 181 c-7 -5 -11 -17 -9 -27 4 -17 5 -17 17 4 14 27 12 35 -8 23z"/>
<path d="M2050 180 c-11 -7 -12 -12 -4 -20 8 -8 13 -6 17 9 3 12 4 21 4 21 -1
0 -9 -5 -17 -10z"/>
<path d="M2141 181 c-8 -5 -20 -7 -28 -4 -7 3 -13 0 -13 -6 0 -6 7 -11 16 -11
13 0 15 -6 9 -27 -4 -16 -4 -26 -2 -23 6 6 37 80 34 80 -1 0 -8 -4 -16 -9z"/>
<path d="M2450 180 c-13 -9 -13 -11 0 -20 10 -6 16 -6 18 0 7 20 -3 30 -18 20z"/>
<path d="M2713 183 c-15 -5 -17 -23 -4 -23 5 0 11 7 15 15 3 8 4 15 3 14 -1 0
-8 -3 -14 -6z"/>
<path d="M3857 183 c-9 -2 -15 -9 -12 -14 9 -14 22 -11 29 6 3 8 4 14 3 14 -1
-1 -10 -3 -20 -6z"/>
<path d="M3951 181 c-12 -8 -12 -12 2 -26 16 -15 17 -15 17 9 0 29 0 29 -19
17z"/>
<path d="M4811 181 c-12 -8 -12 -12 2 -26 16 -15 17 -15 17 9 0 29 0 29 -19
17z"/>
<path d="M5130 180 c-13 -9 -13 -11 0 -20 15 -10 25 0 18 20 -2 6 -8 6 -18 0z"/>
<path d="M5291 180 c-8 -4 -21 -6 -30 -3 -12 3 -11 1 3 -11 12 -9 17 -23 13
-36 -8 -32 1 -23 18 17 17 40 16 46 -4 33z"/>
<path d="M920 173 c1 -18 18 -35 24 -24 4 6 4 16 1 21 -7 12 -25 13 -25 3z"/>
<path d="M1056 171 c-3 -5 1 -11 9 -15 9 -3 15 0 15 9 0 16 -16 20 -24 6z"/>
<path d="M1110 165 c6 -8 8 -20 4 -26 -4 -8 -3 -9 4 -5 18 11 14 46 -4 46 -13
0 -14 -3 -4 -15z"/>
<path d="M1140 174 c0 -3 7 -12 15 -20 13 -14 15 -13 15 5 0 12 -6 21 -15 21
-8 0 -15 -3 -15 -6z"/>
<path d="M1190 174 c0 -3 7 -12 15 -20 13 -14 15 -13 15 5 0 12 -6 21 -15 21
-8 0 -15 -3 -15 -6z"/>
<path d="M1330 171 c0 -6 5 -13 10 -16 6 -3 10 1 10 9 0 9 -4 16 -10 16 -5 0
-10 -4 -10 -9z"/>
<path d="M1410 170 c0 -5 5 -10 10 -10 6 0 10 5 10 10 0 6 -4 10 -10 10 -5 0
-10 -4 -10 -10z"/>
<path d="M1483 161 c0 -11 5 -17 9 -15 11 7 10 34 -1 34 -6 0 -9 -9 -8 -19z"/>
<path d="M1570 171 c0 -6 5 -13 10 -16 6 -3 10 1 10 9 0 9 -4 16 -10 16 -5 0
-10 -4 -10 -9z"/>
<path d="M1610 171 c0 -6 5 -13 10 -16 6 -3 10 1 10 9 0 9 -4 16 -10 16 -5 0
-10 -4 -10 -9z"/>
<path d="M1660 170 c0 -5 5 -10 10 -10 6 0 10 5 10 10 0 6 -4 10 -10 10 -5 0
-10 -4 -10 -10z"/>
<path d="M1740 170 c0 -6 15 -9 35 -7 51 5 55 17 7 17 -23 0 -42 -5 -42 -10z"/>
<path d="M1830 174 c0 -3 7 -12 15 -20 13 -14 15 -13 15 5 0 12 -6 21 -15 21
-8 0 -15 -3 -15 -6z"/>
<path d="M1933 168 c15 -5 27 -15 27 -20 0 -6 3 -8 6 -5 11 11 -17 37 -40 36
-18 0 -17 -2 7 -11z"/>
<path d="M1990 171 c0 -6 5 -13 10 -16 6 -3 10 1 10 9 0 9 -4 16 -10 16 -5 0
-10 -4 -10 -9z"/>
<path d="M2210 174 c0 -3 7 -12 15 -20 13 -14 15 -13 15 5 0 12 -6 21 -15 21
-8 0 -15 -3 -15 -6z"/>
<path d="M2260 171 c0 -6 5 -13 10 -16 6 -3 10 1 10 9 0 9 -4 16 -10 16 -5 0
-10 -4 -10 -9z"/>
<path d="M2310 171 c0 -6 5 -13 10 -16 6 -3 10 1 10 9 0 9 -4 16 -10 16 -5 0
-10 -4 -10 -9z"/>
<path d="M2383 168 c15 -5 25 -14 21 -19 -3 -5 0 -9 5 -9 6 0 11 4 11 8 0 15
-24 32 -44 31 -17 0 -16 -2 7 -11z"/>
<path d="M2500 171 c0 -6 5 -13 10 -16 6 -3 10 1 10 9 0 9 -4 16 -10 16 -5 0
-10 -4 -10 -9z"/>
<path d="M2540 171 c0 -5 7 -11 15 -15 9 -3 15 0 15 9 0 8 -7 15 -15 15 -8 0
-15 -4 -15 -9z"/>
<path d="M2600 170 c0 -5 5 -10 10 -10 6 0 10 5 10 10 0 6 -4 10 -10 10 -5 0
-10 -4 -10 -10z"/>
<path d="M2650 171 c0 -6 5 -13 10 -16 6 -3 10 1 10 9 0 9 -4 16 -10 16 -5 0
-10 -4 -10 -9z"/>
<path d="M2750 171 c0 -14 29 -22 36 -10 3 6 12 8 20 5 7 -3 16 -1 19 4 4 6
-11 10 -34 10 -23 0 -41 -4 -41 -9z"/>
<path d="M2885 170 c3 -5 10 -10 16 -10 5 0 9 5 9 10 0 6 -7 10 -16 10 -8 0
-12 -4 -9 -10z"/>
<path d="M2940 173 c0 -5 5 -15 10 -23 8 -12 10 -11 10 8 0 12 -4 22 -10 22
-5 0 -10 -3 -10 -7z"/>
<path d="M3080 171 c0 -5 7 -11 15 -15 9 -3 15 0 15 9 0 8 -7 15 -15 15 -8 0
-15 -4 -15 -9z"/>
<path d="M3152 160 c14 -22 24 -19 15 5 -4 8 -11 15 -17 15 -6 0 -6 -7 2 -20z"/>
<path d="M3190 171 c0 -6 5 -13 10 -16 6 -3 10 1 10 9 0 9 -4 16 -10 16 -5 0
-10 -4 -10 -9z"/>
<path d="M3280 173 c0 -5 5 -15 10 -23 8 -12 10 -11 10 8 0 12 -4 22 -10 22
-5 0 -10 -3 -10 -7z"/>
<path d="M3423 160 c2 -24 13 -26 21 -4 8 22 8 24 -8 24 -9 0 -14 -9 -13 -20z"/>
<path d="M3466 171 c-3 -5 1 -11 9 -15 9 -3 15 0 15 9 0 16 -16 20 -24 6z"/>
<path d="M3520 165 c6 -8 8 -20 4 -26 -4 -8 -3 -9 4 -5 18 11 14 46 -4 46 -13
0 -14 -3 -4 -15z"/>
<path d="M3560 171 c0 -5 7 -11 15 -15 9 -3 15 0 15 9 0 8 -7 15 -15 15 -8 0
-15 -4 -15 -9z"/>
<path d="M3616 171 c-3 -5 1 -11 9 -15 15 -6 29 7 18 18 -9 9 -21 8 -27 -3z"/>
<path d="M3660 176 c0 -2 7 -9 15 -16 12 -10 15 -10 15 4 0 9 -7 16 -15 16 -8
0 -15 -2 -15 -4z"/>
<path d="M3807 168 c7 -8 10 -18 6 -21 -3 -4 -1 -7 6 -7 17 0 10 32 -9 38 -12
4 -13 3 -3 -10z"/>
<path d="M3980 170 c0 -6 15 -9 35 -7 51 5 55 17 7 17 -23 0 -42 -5 -42 -10z"/>
<path d="M4080 171 c0 -6 5 -13 10 -16 6 -3 10 1 10 9 0 9 -4 16 -10 16 -5 0
-10 -4 -10 -9z"/>
<path d="M4130 171 c0 -6 5 -13 10 -16 6 -3 10 1 10 9 0 9 -4 16 -10 16 -5 0
-10 -4 -10 -9z"/>
<path d="M4260 171 c0 -14 29 -22 36 -10 3 6 12 8 20 5 7 -3 16 -1 19 4 4 6
-11 10 -34 10 -23 0 -41 -4 -41 -9z"/>
<path d="M4396 171 c-3 -5 1 -11 9 -15 15 -6 29 7 18 18 -9 9 -21 8 -27 -3z"/>
<path d="M4440 176 c0 -2 7 -9 15 -16 12 -10 15 -10 15 4 0 9 -7 16 -15 16 -8
0 -15 -2 -15 -4z"/>
<path d="M4490 171 c0 -6 5 -13 10 -16 6 -3 10 1 10 9 0 9 -4 16 -10 16 -5 0
-10 -4 -10 -9z"/>
<path d="M4540 171 c0 -6 5 -13 10 -16 6 -3 10 1 10 9 0 9 -4 16 -10 16 -5 0
-10 -4 -10 -9z"/>
<path d="M4634 156 c0 -13 4 -22 9 -19 10 6 9 43 -2 43 -5 0 -8 -11 -7 -24z"/>
<path d="M4710 171 c0 -6 5 -13 10 -16 6 -3 10 1 10 9 0 9 -4 16 -10 16 -5 0
-10 -4 -10 -9z"/>
<path d="M4940 170 c0 -5 5 -10 10 -10 6 0 10 5 10 10 0 6 -4 10 -10 10 -5 0
-10 -4 -10 -10z"/>
<path d="M4994 156 c0 -13 4 -22 9 -19 10 6 9 43 -2 43 -5 0 -8 -11 -7 -24z"/>
<path d="M5063 168 c15 -5 25 -14 21 -19 -3 -5 0 -9 5 -9 6 0 11 4 11 8 0 15
-24 32 -44 31 -17 0 -16 -2 7 -11z"/>
<path d="M5170 174 c0 -3 7 -12 15 -20 13 -14 15 -13 15 5 0 12 -6 21 -15 21
-8 0 -15 -3 -15 -6z"/>
</g>
</svg>
