<?xml version="1.0" standalone="no"?>
<!DOCTYPE svg PUBLIC "-//W3C//DTD SVG 20010904//EN"
 "http://www.w3.org/TR/2001/REC-SVG-20010904/DTD/svg10.dtd">
<svg version="1.0" xmlns="http://www.w3.org/2000/svg"
 width="550.000000pt" height="75.000000pt" viewBox="0 0 550.000000 75.000000"
 preserveAspectRatio="xMidYMid meet">
<metadata>
Created by potrace 1.16, written by Peter Selinger 2001-2019
</metadata>
<g transform="translate(0.000000,75.000000) scale(0.100000,-0.100000)"
fill="#000000" stroke="none">
<path d="M357 679 c-53 -12 -107 -42 -140 -77 -28 -29 -28 -31 -13 -60 9 -17
16 -39 16 -48 0 -13 7 -8 24 15 37 50 84 80 147 93 32 6 56 15 53 20 -9 15 7
48 24 49 23 1 -26 17 -53 17 -11 0 -37 -4 -58 -9z"/>
<path d="M2000 570 c-9 -16 -8 -20 5 -20 10 0 15 -10 15 -30 0 -19 -5 -30 -14
-30 -8 0 -16 -10 -18 -22 -3 -22 -6 -23 -100 -19 -64 2 -98 0 -98 -7 0 -6 17
-13 38 -15 27 -3 22 -4 -20 -5 -57 -2 -58 -2 -58 -32 l0 -30 60 0 c46 0 60 3
60 15 0 10 -16 15 -57 18 -32 2 3 3 77 3 74 0 111 -1 83 -3 -51 -4 -53 -5 -53
-33 0 -32 -23 -50 -64 -50 -14 0 -26 -5 -26 -11 0 -6 21 -9 53 -7 49 3 53 5
62 36 9 30 12 32 57 32 47 0 48 1 48 30 0 23 -4 30 -20 30 -15 0 -20 7 -20 25
0 16 6 25 15 25 16 0 20 34 9 89 -7 36 -19 40 -34 11z"/>
<path d="M3500 570 c-9 -16 -8 -20 5 -20 10 0 15 -10 15 -30 0 -19 -5 -30 -14
-30 -8 0 -16 -10 -18 -22 -3 -22 -6 -23 -100 -19 -64 2 -98 0 -98 -7 0 -6 17
-13 38 -15 32 -3 31 -4 -13 -5 -27 -1 -60 -5 -72 -8 -23 -6 -23 -5 -23 80 0
51 -4 86 -10 86 -6 0 -10 -30 -10 -70 0 -68 -1 -70 -25 -70 -21 0 -25 5 -25
30 0 24 -6 33 -27 41 -14 5 -32 8 -40 5 -17 -7 -17 -28 0 -24 26 5 57 -14 57
-34 0 -16 -5 -19 -22 -14 -13 3 -29 6 -35 6 -7 0 -13 7 -13 15 0 8 -6 12 -14
9 -8 -3 -12 -12 -9 -20 4 -11 -5 -14 -36 -14 -30 0 -43 -5 -51 -20 -9 -16 -8
-20 5 -20 19 0 19 -5 -1 -36 -18 -27 -14 -40 11 -31 9 4 15 19 15 37 0 23 5
30 19 30 13 0 20 -10 24 -37 7 -43 3 -53 -24 -53 -10 0 -19 -4 -19 -10 0 -5
16 -10 35 -10 32 0 35 2 35 30 0 29 2 30 45 30 33 0 45 4 45 15 0 11 -11 15
-40 15 -22 0 -40 5 -40 10 0 6 32 10 75 10 43 0 75 -4 75 -10 0 -5 -4 -10 -10
-10 -5 0 -10 -16 -10 -35 0 -31 -3 -35 -25 -35 -14 0 -25 -4 -25 -10 0 -5 16
-10 35 -10 32 0 35 3 35 29 0 33 17 41 98 41 39 0 52 4 52 15 0 10 -16 15 -57
18 -32 2 3 3 77 3 74 0 111 -1 83 -3 -51 -4 -53 -5 -53 -33 0 -32 -23 -50 -64
-50 -14 0 -26 -5 -26 -11 0 -6 21 -9 53 -7 49 3 53 5 62 36 l9 32 153 0 c146
0 153 1 153 20 0 15 7 20 25 20 21 0 25 -5 25 -27 0 -42 -11 -51 -59 -55 -25
-2 -46 -9 -49 -15 -5 -16 95 -18 118 -3 19 12 29 180 10 180 -6 0 -14 -9 -17
-19 -5 -18 -12 -19 -107 -14 -86 5 -104 3 -118 -11 -9 -9 -30 -16 -47 -16 -26
0 -31 4 -31 25 0 16 6 25 15 25 16 0 20 34 9 89 -7 36 -19 40 -34 11z"/>
<path d="M2923 538 c-7 -34 -13 -44 -31 -46 -33 -5 -26 -22 9 -22 20 0 29 -4
26 -12 -3 -12 -46 -15 -234 -17 -39 -1 -43 -4 -43 -25 0 -13 7 -26 15 -30 8
-3 15 -1 15 4 0 6 9 10 20 10 16 0 20 -7 21 -32 l1 -33 10 33 c7 21 17 32 29
32 23 0 23 -3 5 -39 -17 -31 -46 -59 -46 -43 0 14 -53 -1 -58 -16 -5 -16 90
-16 106 0 9 9 12 9 12 0 0 -16 132 -16 148 0 7 7 12 29 12 49 0 57 11 99 26
99 8 0 14 5 14 10 0 6 -9 10 -21 10 -15 0 -19 4 -15 16 3 9 6 18 6 20 0 2 9 4
20 4 11 0 20 6 20 14 0 9 -7 12 -20 9 -16 -4 -20 0 -20 21 0 41 -18 30 -27
-16z"/>
<path d="M4280 510 c0 -68 -1 -70 -25 -70 -25 0 -30 9 -38 75 -2 17 -5 6 -6
-24 -1 -52 -2 -53 -27 -48 -22 4 -25 2 -20 -17 3 -11 6 -26 6 -32 0 -7 14 -14
30 -16 20 -3 30 0 30 9 0 7 9 13 20 13 13 0 20 -7 20 -19 0 -31 19 -35 30 -7
13 35 50 36 50 1 0 -27 17 -34 26 -10 4 8 17 15 29 15 21 0 25 6 30 48 10 68
15 82 31 82 22 0 16 17 -8 23 -25 7 -38 -7 -38 -40 0 -36 -11 -53 -34 -53 -22
0 -22 2 -14 67 4 37 5 69 2 72 -12 12 -24 -28 -24 -81 0 -55 -1 -58 -25 -58
-24 0 -25 2 -25 70 0 40 -4 70 -10 70 -6 0 -10 -30 -10 -70z"/>
<path d="M1427 550 c-4 -15 -14 -20 -41 -20 -20 0 -36 -4 -36 -10 0 -5 16 -10
35 -10 36 0 44 -15 29 -54 -8 -20 -44 -21 -44 -1 0 8 -4 15 -10 15 -5 0 -10
-7 -10 -15 0 -9 -9 -15 -25 -15 -16 0 -25 6 -25 15 0 8 -4 15 -10 15 -5 0 -10
-7 -10 -15 0 -9 -9 -15 -25 -15 -16 0 -25 6 -25 15 0 8 -4 15 -10 15 -5 0 -10
-7 -10 -15 0 -9 -9 -15 -25 -15 -22 0 -25 -4 -24 -32 0 -18 3 -27 6 -20 2 6
21 12 41 12 33 -1 35 -2 20 -14 -10 -7 -18 -19 -18 -26 0 -18 51 -4 71 19 15
18 16 18 27 0 14 -22 62 -26 62 -5 0 8 -12 17 -27 19 -17 2 -10 5 20 6 45 1
47 0 47 -27 0 -47 -14 -52 -137 -52 -69 0 -113 -4 -113 -10 0 -16 255 -13 267
3 12 15 24 257 13 257 -4 0 -10 -9 -13 -20z"/>
<path d="M4725 550 c-3 -11 -11 -20 -16 -20 -5 0 -9 -11 -9 -25 0 -16 6 -25
15 -25 8 0 15 -9 15 -20 0 -18 -7 -20 -81 -20 l-81 0 6 33 c4 23 3 28 -4 17
-5 -8 -10 -23 -10 -32 0 -21 -36 -25 -43 -5 -4 10 -6 10 -6 0 -1 -8 -14 -13
-31 -13 -16 0 -30 -5 -30 -10 0 -19 24 -37 41 -33 12 4 19 -2 22 -19 l4 -23 8
23 c11 33 37 29 33 -5 -3 -24 -8 -29 -42 -33 -60 -8 -60 -32 0 -28 46 3 48 4
62 46 10 30 19 42 34 42 27 0 16 -36 -23 -72 -32 -30 -37 -48 -15 -48 27 0 74
49 80 85 5 26 12 35 26 35 17 0 20 -7 20 -45 0 -41 -2 -45 -25 -45 -16 0 -25
-6 -25 -15 0 -11 11 -15 40 -15 l40 0 0 70 c0 40 4 70 10 70 6 0 10 14 10 30
0 17 -4 30 -10 30 -5 0 -10 7 -10 15 0 8 5 15 10 15 6 0 10 14 10 30 0 34 -15
40 -25 10z"/>
<path d="M5020 536 c0 -24 -5 -36 -17 -39 -17 -4 -17 -5 0 -6 9 0 17 -8 17
-17 0 -13 -7 -15 -36 -11 -41 7 -84 32 -84 49 0 7 13 9 35 5 19 -3 35 -2 35 4
0 5 -36 9 -80 9 -69 0 -80 -2 -80 -17 0 -13 3 -14 12 -5 13 13 58 17 58 5 0
-3 -8 -15 -17 -26 -17 -19 -17 -19 5 -13 13 5 22 3 22 -3 0 -6 18 -11 40 -11
22 0 40 -4 40 -10 0 -6 -40 -10 -101 -10 -64 0 -98 4 -94 10 3 6 1 10 -5 10
-7 0 -9 -7 -6 -16 3 -9 6 -22 6 -30 0 -10 14 -14 56 -14 56 0 56 0 42 -22 -8
-13 -36 -34 -61 -48 -50 -27 -59 -40 -27 -40 48 0 140 66 140 100 0 5 11 10
25 10 20 0 25 -5 25 -25 0 -14 5 -25 10 -25 6 0 10 20 10 45 0 41 2 45 25 45
24 0 25 2 25 65 0 37 -4 65 -10 65 -5 0 -10 -15 -10 -34z"/>
<path d="M5324 535 c-3 -14 -14 -25 -23 -26 -10 0 -11 -2 -3 -6 6 -2 12 -11
12 -18 0 -10 -20 -14 -70 -17 -60 -3 -70 -1 -70 13 0 13 14 18 55 24 64 8 74
25 15 25 -23 0 -40 -5 -40 -11 0 -7 -10 -9 -25 -7 -25 5 -31 -6 -27 -54 2 -21
-18 -24 -36 -6 -9 9 -12 9 -12 0 0 -7 -9 -12 -20 -12 -14 0 -20 -7 -20 -24 0
-19 4 -23 20 -19 18 5 20 0 20 -41 0 -39 -3 -46 -20 -46 -11 0 -20 -4 -20 -10
0 -5 14 -10 30 -10 20 0 30 5 30 15 0 8 6 15 13 15 7 0 23 18 36 40 12 22 29
40 37 40 25 0 15 -32 -21 -66 -41 -39 -43 -44 -12 -44 26 0 67 38 67 62 0 27
11 48 26 48 8 0 14 -10 14 -24 0 -34 18 -42 26 -11 4 16 13 25 25 25 14 0 19
7 19 30 0 17 -4 30 -10 30 -5 0 -10 7 -10 15 0 8 5 15 10 15 6 0 10 18 10 40
0 44 -16 54 -26 15z"/>
<path d="M2623 523 c-7 -15 -13 -40 -13 -55 0 -23 -4 -28 -24 -28 -22 0 -24 3
-19 41 5 33 3 41 -8 37 -9 -3 -13 -17 -11 -41 3 -31 0 -37 -16 -37 -11 0 -23
6 -25 13 -4 10 -6 10 -6 0 -1 -7 -10 -13 -22 -13 -11 0 -18 4 -15 8 2 4 1 14
-5 22 -7 13 -9 12 -9 -2 0 -10 -6 -18 -14 -18 -8 0 -20 -2 -28 -3 -7 -2 -10
-2 -5 0 4 3 7 12 7 21 -1 14 -4 13 -19 -5 -11 -13 -24 -23 -30 -23 -16 0 -13
-59 3 -76 20 -20 24 -18 18 11 -5 30 14 34 34 8 13 -17 15 -17 28 0 7 9 21 17
31 17 17 0 17 -1 -2 -47 -3 -7 0 -13 7 -13 16 0 60 47 52 54 -3 3 7 6 21 6 15
0 27 -6 27 -13 0 -7 9 -18 20 -25 11 -7 20 -21 20 -32 0 -20 0 -20 -29 1 l-29
22 -35 -21 c-27 -18 -40 -20 -66 -12 -18 5 -38 7 -44 5 -52 -15 -67 -15 -67 3
0 10 -14 26 -30 35 -25 15 -70 80 -70 102 0 3 20 5 45 5 43 0 45 1 45 30 0 17
-4 30 -10 30 -5 0 -10 -9 -10 -20 0 -17 -7 -20 -50 -20 -49 0 -50 -1 -44 -25
6 -24 4 -25 -39 -25 -32 0 -47 -5 -51 -16 -9 -23 -8 -24 19 -24 23 0 24 -2 13
-20 -7 -11 -37 -32 -65 -48 -56 -29 -66 -42 -33 -42 29 0 81 24 108 50 23 22
23 22 45 2 47 -43 80 -51 193 -51 74 1 116 5 130 14 18 12 25 12 40 0 11 -8
29 -15 42 -15 17 0 22 6 22 27 0 14 -7 34 -15 43 -13 14 -13 26 -4 73 8 36 17
57 25 57 8 0 14 5 14 10 0 6 -4 10 -10 10 -5 0 -10 9 -10 20 0 28 -13 25 -27
-7z"/>
<path d="M344 529 c-11 -6 -28 -25 -38 -44 -19 -35 -19 -36 19 -77 7 -7 9 -48
7 -104 l-4 -94 26 -10 c15 -5 38 -13 51 -16 l25 -6 0 95 c0 53 -4 99 -10 102
-15 9 -12 18 15 47 14 15 25 32 25 37 0 16 -66 81 -81 80 -8 0 -23 -5 -35 -10z"/>
<path d="M1120 506 c0 -50 -9 -66 -36 -66 -21 0 -24 -5 -23 -32 0 -18 3 -27 6
-20 2 6 14 12 24 12 17 0 20 -6 17 -32 l-3 -33 -100 -2 c-111 -3 -145 -9 -145
-23 0 -6 52 -10 130 -10 118 0 130 2 140 19 13 25 13 221 0 221 -5 0 -10 -15
-10 -34z"/>
<path d="M1720 510 c0 -17 -7 -20 -50 -20 -49 0 -50 -1 -44 -25 6 -24 4 -25
-39 -25 -32 0 -47 -5 -51 -16 -9 -23 -8 -24 19 -24 23 0 24 -2 13 -20 -7 -11
-37 -32 -65 -48 -56 -29 -66 -42 -33 -42 29 0 81 24 108 50 23 22 23 22 45 2
30 -27 81 -52 107 -52 34 0 27 52 -10 73 -25 15 -70 80 -70 102 0 3 20 5 45 5
43 0 45 1 45 30 0 17 -4 30 -10 30 -5 0 -10 -9 -10 -20z"/>
<path d="M472 394 c2 -40 7 -50 23 -53 35 -6 65 -48 65 -91 0 -33 -5 -41 -37
-61 -30 -18 -52 -23 -104 -22 l-67 0 20 -33 c11 -19 16 -34 11 -34 -4 0 -1 -5
7 -10 28 -19 112 -9 164 19 56 30 106 91 106 131 0 71 -91 183 -160 197 l-31
6 3 -49z"/>
<path d="M929 236 c18 -21 6 -34 -19 -18 -10 6 -22 8 -25 3 -3 -5 9 -14 25
-20 17 -5 30 -13 30 -17 0 -11 -73 4 -81 17 -4 7 -6 -8 -5 -32 l1 -44 258 -3
257 -2 0 65 c0 37 -4 65 -10 65 -10 0 -14 -19 -11 -52 1 -10 -4 -18 -13 -18
-10 0 -16 9 -16 22 l0 22 -16 -22 c-19 -27 -45 -28 -69 -2 -10 11 -21 20 -26
20 -4 0 -5 -9 -2 -20 3 -11 0 -20 -6 -20 -6 0 -11 5 -11 10 0 6 -7 10 -15 10
-8 0 -15 -4 -15 -10 0 -18 -18 -10 -23 10 -3 11 -10 20 -15 20 -6 0 -8 -9 -5
-20 4 -17 0 -20 -25 -20 -21 0 -35 7 -42 20 -6 11 -15 20 -19 20 -5 0 -7 -9
-4 -20 6 -23 -6 -26 -26 -7 -11 10 -14 10 -18 0 -9 -25 -32 -13 -35 19 -2 17
-10 34 -18 36 -13 5 -13 3 -1 -12z"/>
<path d="M1430 215 c0 -25 -4 -35 -16 -35 -11 0 -14 -8 -12 -27 l3 -28 119 -3
c89 -2 121 1 128 10 6 10 8 10 8 1 0 -8 13 -13 30 -13 17 0 30 5 30 12 0 9 3
9 12 0 7 -7 40 -12 79 -12 l67 0 4 38 c6 45 3 50 -22 34 -26 -16 -27 -15 -33
8 -3 11 -10 20 -15 20 -6 0 -8 -9 -5 -20 5 -18 0 -20 -37 -20 -37 0 -41 2 -35
20 3 11 2 20 -3 20 -5 0 -12 -9 -15 -20 -3 -11 -10 -20 -16 -20 -6 0 -11 9
-11 20 0 11 -4 20 -10 20 -5 0 -10 -9 -10 -21 0 -12 -5 -19 -12 -16 -8 2 -12
17 -10 36 1 17 -2 31 -8 31 -10 0 -14 -19 -11 -52 1 -10 -4 -18 -13 -18 -9 0
-16 9 -16 20 0 11 -4 20 -9 20 -5 0 -7 -9 -4 -20 6 -22 -21 -29 -31 -7 -5 10
-7 10 -12 0 -3 -7 -13 -13 -21 -13 -12 0 -14 7 -9 35 4 22 3 35 -4 35 -5 0
-10 -15 -10 -32 0 -25 -6 -36 -25 -45 -25 -11 -25 -10 -25 33 0 24 -4 44 -10
44 -5 0 -10 -16 -10 -35z"/>
<path d="M2009 233 c-1 -10 -1 -26 0 -35 3 -25 -25 -23 -32 2 -3 11 -10 20
-17 20 -6 0 -8 -5 -4 -11 8 -14 -14 -29 -43 -29 -19 0 -23 -6 -23 -30 l0 -30
95 0 c83 0 98 3 116 21 11 11 23 18 26 16 9 -9 -17 -47 -32 -47 -8 0 -15 -4
-15 -10 0 -5 14 -10 30 -10 27 0 33 6 50 46 21 49 26 84 11 84 -5 0 -13 -9
-16 -20 -3 -11 -13 -20 -21 -20 -11 0 -13 6 -9 20 4 11 2 20 -4 20 -6 0 -11
-9 -11 -20 0 -23 -10 -26 -28 -8 -10 10 -15 10 -21 -1 -5 -8 -16 -11 -26 -7
-13 4 -15 13 -10 36 4 19 3 30 -4 30 -6 0 -12 -8 -12 -17z"/>
<path d="M2235 218 c-4 -18 -13 -36 -19 -40 -8 -6 -7 -10 3 -17 9 -6 10 -11 2
-15 -35 -22 12 -26 307 -23 l317 2 3 33 c3 31 -11 62 -28 62 -5 0 -6 -9 -3
-20 5 -18 0 -20 -36 -20 -39 0 -41 1 -31 20 7 14 7 20 0 20 -5 0 -10 7 -10 15
0 8 -4 15 -10 15 -5 0 -10 -9 -10 -21 0 -11 5 -17 10 -14 15 9 12 -4 -4 -21
-21 -20 -35 -17 -46 9 l-9 22 0 -22 c-1 -29 -31 -31 -31 -3 0 11 -4 20 -10 20
-5 0 -10 -9 -10 -20 0 -11 -7 -20 -15 -20 -10 0 -15 11 -15 35 0 19 -5 35 -11
35 -7 0 -9 -9 -5 -24 8 -31 -17 -54 -39 -36 -10 9 -15 9 -15 1 0 -27 -28 -8
-34 24 -7 38 -26 48 -26 14 0 -11 5 -17 10 -14 15 9 12 -5 -5 -22 -18 -17 -45
-11 -45 12 0 8 -5 15 -11 15 -5 0 -7 -5 -3 -11 8 -14 -14 -29 -43 -29 -16 0
-23 6 -23 20 0 11 -5 20 -11 20 -6 0 -8 -9 -4 -20 7 -22 -19 -29 -29 -7 -5 10
-7 10 -12 0 -3 -7 -13 -13 -21 -13 -12 0 -14 7 -9 35 9 45 -10 47 -19 3z"/>
<path d="M3148 242 c6 -5 11 -21 10 -36 -2 -22 -7 -27 -28 -25 -54 3 -60 0
-60 -31 l0 -30 75 0 c41 0 75 4 75 9 0 5 9 7 20 4 13 -4 26 1 36 13 14 18 14
18 12 -6 -3 -21 -8 -25 -36 -23 -21 1 -32 -3 -29 -10 2 -7 23 -12 48 -12 l44
0 3 63 c2 38 -1 62 -8 62 -5 0 -10 -9 -10 -20 0 -22 -26 -28 -33 -7 -4 10 -7
10 -18 0 -22 -22 -30 -14 -23 22 4 23 2 35 -5 35 -11 0 -15 -19 -12 -52 1 -10
-4 -18 -13 -18 -11 0 -16 9 -16 29 0 17 -6 31 -16 35 -22 8 -31 7 -16 -2z"/>
<path d="M3423 239 c21 -12 23 -59 2 -59 -17 0 -20 -16 -5 -23 6 -3 5 -4 -2
-3 -7 1 -15 13 -16 25 -2 15 0 21 7 17 6 -4 11 -3 11 3 0 6 -9 15 -20 21 -18
9 -20 8 -20 -15 0 -16 -6 -25 -15 -25 -10 0 -15 -10 -15 -29 l0 -30 181 -1
180 0 -3 47 c-2 28 -8 48 -17 51 -9 3 -11 -2 -6 -17 6 -21 4 -22 -32 -19 -25
2 -38 8 -39 18 -1 8 -2 23 -3 33 0 9 -6 17 -12 17 -7 0 -9 -9 -5 -24 4 -15 0
-28 -10 -37 -14 -11 -19 -10 -34 9 -23 28 -30 28 -23 1 5 -18 2 -20 -28 -17
-25 2 -34 8 -34 21 0 19 -30 47 -49 47 -6 0 -3 -5 7 -11z"/>
<path d="M3808 243 c14 -5 17 -33 3 -33 -6 0 -13 5 -16 10 -8 12 -25 13 -25 2
0 -5 12 -15 28 -22 35 -16 12 -25 -29 -11 l-30 10 3 -37 3 -37 305 0 305 0 3
33 c3 31 -11 62 -28 62 -5 0 -6 -9 -3 -20 5 -18 0 -20 -36 -20 -33 0 -41 3
-39 16 2 10 -3 19 -10 21 -8 3 -10 -1 -5 -13 5 -14 2 -16 -20 -10 -16 4 -27 2
-27 -4 0 -5 -7 -10 -15 -10 -9 0 -15 7 -13 16 2 10 -3 19 -11 22 -9 3 -11 -1
-6 -17 4 -15 2 -21 -8 -21 -9 0 -18 6 -21 13 -5 10 -7 10 -12 0 -9 -20 -31
-15 -37 7 -3 11 -10 20 -16 20 -9 0 -9 -5 -1 -20 10 -18 8 -20 -30 -20 -39 0
-40 1 -40 35 0 19 -4 35 -10 35 -5 0 -10 -16 -10 -35 0 -39 -24 -50 -33 -15
-3 11 -11 20 -17 20 -9 0 -9 -4 1 -17 13 -15 11 -16 -13 -10 -15 4 -30 3 -33
-3 -11 -18 -27 -10 -22 10 5 21 -16 51 -36 49 -9 0 -8 -2 1 -6z"/>
<path d="M4650 215 c0 -35 -23 -50 -33 -22 -4 10 -7 10 -18 0 -19 -19 -29 -16
-29 7 0 11 -5 20 -11 20 -6 0 -8 -9 -4 -20 7 -22 -19 -29 -29 -7 -5 10 -7 10
-12 0 -9 -20 -34 -15 -34 7 0 11 -5 20 -11 20 -6 0 -8 -9 -4 -21 7 -20 4 -21
-34 -17 -40 3 -41 3 -41 -29 l0 -33 140 0 140 0 0 65 c0 37 -4 65 -10 65 -5 0
-10 -16 -10 -35z"/>
<path d="M4730 215 c0 -24 -5 -35 -15 -35 -10 0 -15 -10 -15 -30 l0 -30 260 0
260 1 0 32 0 32 19 -24 c14 -18 20 -20 23 -10 3 8 9 11 13 7 12 -11 -3 -39
-25 -45 -31 -8 -24 -23 10 -23 27 0 34 6 50 43 21 44 26 87 11 87 -5 0 -11 -9
-14 -20 -3 -11 -10 -20 -16 -20 -6 0 -11 9 -11 20 0 11 -5 20 -11 20 -6 0 -9
-9 -6 -20 3 -13 0 -20 -9 -20 -8 0 -14 5 -14 10 0 13 -37 13 -45 0 -11 -18
-27 -11 -22 10 3 11 1 20 -4 20 -5 0 -9 7 -9 15 0 8 -4 15 -10 15 -5 0 -10 -9
-10 -21 0 -11 5 -17 10 -14 15 9 12 -5 -5 -22 -18 -17 -45 -11 -45 12 0 8 -5
15 -11 15 -5 0 -7 -5 -3 -11 8 -14 -14 -29 -45 -29 -18 0 -22 4 -18 20 3 11 1
20 -4 20 -5 0 -9 -9 -9 -20 0 -11 -7 -20 -15 -20 -8 0 -15 9 -15 20 0 11 -4
20 -10 20 -5 0 -10 -9 -10 -20 0 -11 -7 -20 -15 -20 -10 0 -15 11 -15 35 0 19
-4 35 -10 35 -5 0 -10 -16 -10 -35 0 -34 -14 -48 -23 -22 -4 10 -7 10 -18 0
-19 -18 -40 -16 -37 3 2 10 -2 19 -9 21 -7 3 -9 -3 -6 -16 6 -24 -6 -27 -26
-8 -11 10 -14 10 -18 0 -3 -7 -12 -13 -20 -13 -12 0 -14 7 -9 35 4 22 3 35 -4
35 -5 0 -10 -16 -10 -35z"/>
</g>
</svg>
